HIERARCHY
ROOT ui
{
	 OFFSET 0 0 0
	 CHANNELS 3 XPosition YPosition Z Position
	 EndSite
	 {
	 OFFSET 0 -1 0
	 }
}
ROOT li
{
	 OFFSET 0 0 0
	 CHANNELS 3 XPosition YPosition Z Position
	 EndSite
	 {
	 OFFSET 0 -1 0
	 }
}
ROOT ul
{
	 OFFSET 0 0 0
	 CHANNELS 3 XPosition YPosition Z Position
	 EndSite
	 {
	 OFFSET 0 -1 0
	 }
}
ROOT ll
{
	 OFFSET 0 0 0
	 CHANNELS 3 XPosition YPosition Z Position
	 EndSite
	 {
	 OFFSET 0 -1 0
	 }
}
ROOT tt
{
	 OFFSET 0 0 0
	 CHANNELS 3 XPosition YPosition Z Position
	 EndSite
	 {
	 OFFSET 0 -1 0
	 }
}
ROOT tb
{
	 OFFSET 0 0 0
	 CHANNELS 3 XPosition YPosition Z Position
	 EndSite
	 {
	 OFFSET 0 -1 0
	 }
}
ROOT td
{
	 OFFSET 0 0 0
	 CHANNELS 3 XPosition YPosition Z Position
	 EndSite
	 {
	 OFFSET 0 -1 0
	 }
}
ROOT v
{
	 OFFSET 0 0 0
	 CHANNELS 3 XPosition YPosition Z Position
	 EndSite
	 {
	 OFFSET 0 -1 0
	 }
}
ROOT bn
{
	 OFFSET 0 0 0
	 CHANNELS 3 XPosition YPosition Z Position
	 EndSite
	 {
	 OFFSET 0 -1 0
	 }
}
MOTION
Frames: 29
Frame Time: 0.002
-0.00106905198097229	6.602569818496704E-4	0		0.46004412841796877	-2.380682373046875	0		-1.167470458984375	-0.037611465454101566	0		-0.70429296875	-2.41197265625	0		1.3247939453125	-0.6725650634765625	0		2.95626025390625	-0.19455290222167967	0		4.5656484375	0.057652763366699215	0		5.6016943359375	0.2562614135742188	0		-0.4923965759277344	5.83742724609375	0		
-0.0015217219591140748	5.465490221977234E-4	0		0.5086159057617188	-2.388449951171875	0		-1.1679376220703126	-0.03728131103515625	0		-0.74365234375	-2.410454833984375	0		1.2802020263671876	-0.6607622680664063	0		2.99065478515625	-0.2041269073486328	0		4.56215966796875	0.04983025741577148	0		5.5984326171875	0.2403895721435547	0		-0.4765137634277344	5.849365234375	0		
0.0010434249639511108	0.0034205400943756103	0		0.46726666259765626	-2.389335205078125	0		-1.2393726806640626	-0.0322432746887207	0		-0.6960935668945313	-2.41976513671875	0		1.2854246826171876	-0.668387939453125	0		2.988234375	-0.19330165100097657	0		4.55883251953125	0.0600887336730957	0		5.60446044921875	0.23137895202636719	0		-0.34063961791992187	5.868109375	0		
5.717080235481262E-4	0.003344111919403076	0		0.46009234619140627	-2.376513427734375	0		-1.2298675537109376	-0.03298883819580078	0		-0.7653060913085937	-2.40889794921875	0		1.289789794921875	-0.66196533203125	0		2.98769384765625	-0.1944226837158203	0		4.57329736328125	0.05026443099975586	0		5.60279052734375	0.25908203125	0		-0.4722799377441406	5.8475224609375	0		
9.536500275135041E-5	0.0032907259464263917	0		0.4588316650390625	-2.376718017578125	0		-1.1613172607421876	-0.0293701286315918	0		-0.6966663208007813	-2.417442138671875	0		1.3249964599609374	-0.6718255615234375	0		2.987152099609375	-0.1954604949951172	0		4.56792138671875	0.05675674057006836	0		5.60663623046875	0.24189482116699218	0		-0.3376039733886719	5.8682099609375	0		
-3.8206198811531066E-4	0.0032619130611419678	0		0.47954473876953124	-2.3841279296875	0		-1.240832763671875	-0.03117801284790039	0		-0.7358746337890625	-2.41584130859375	0		1.2833358154296874	-0.6698134765625	0		3.0016015625	-0.19757147216796875	0		4.5674599609375	0.0553237533569336	0		5.6062626953125	0.238907958984375	0		-0.4695110778808594	5.847740234375	0		
-8.570489883422852E-4	0.0032583680152893065	0		0.4524157409667969	-2.38197607421875	0		-1.1663333740234374	-0.032670482635498044	0		-0.7030948486328125	-2.42101708984375	0		1.2796361083984376	-0.6731477661132812	0		2.977104736328125	-0.19515858459472657	0		4.57293212890625	0.04795595932006836	0		5.59947412109375	0.2363629455566406	0		-0.3360764465332031	5.8693876953125	0		
-0.0043601679801940916	3.146359920501709E-4	0		0.46123403930664064	-2.3901865234375	0		-1.2258765869140624	-0.037668178558349606	0		-0.7632017822265625	-2.421135498046875	0		1.2820255126953124	-0.6704937744140625	0		2.9705615234375	-0.19784242248535155	0		4.56145263671875	0.04491446685791016	0		5.605505859375	0.22855134582519532	0		-0.4662865295410156	5.84700146484375	0		
0.01822537612915039	0.0040917577743530276	0		0.46529129028320315	-2.383308837890625	0		-1.2142171630859375	-0.026474161148071287	0		-0.6882504272460938	-2.422799560546875	0		1.28953564453125	-0.65984521484375	0		2.997076416015625	-0.19681471252441407	0		4.57407275390625	0.049730113983154293	0		5.60807080078125	0.24013235473632813	0		-0.33015194702148437	5.86457470703125	0		
-0.0022310290336608886	0.0033953070640563967	0		0.45340924072265626	-2.377208251953125	0		-1.218717041015625	-0.03009872817993164	0		-0.7760877075195313	-2.411547119140625	0		1.282865234375	-0.66697900390625	0		2.9796484375	-0.19218180847167968	0		4.57056494140625	0.042860939025878904	0		5.60480908203125	0.22445924377441406	0		-0.464566650390625	5.8473251953125	0		
-0.002662261962890625	0.0034855890274047853	0		0.47443728637695315	-2.384470947265625	0		-1.15009912109375	-0.025612754821777342	0		-0.7070819091796875	-2.42015673828125	0		1.2802576904296874	-0.6711094360351563	0		2.97511962890625	-0.1976117401123047	0		4.57523779296875	0.05001739501953125	0		5.60156591796875	0.2107669677734375	0		-0.46388262939453123	5.84750341796875	0		
0.003762176990509033	-0.009490781784057618	0		0.44764266967773436	-2.3821240234375	0		-1.2255013427734376	-0.023387630462646483	0		-0.7010693359375	-2.433013427734375	0		1.2766910400390625	-0.6741817016601562	0		2.983644775390625	-0.20011956787109375	0		4.5648310546875	0.04947092819213867	0		5.60124951171875	0.20933248901367188	0		-0.3300567626953125	5.8670546875	0		
-0.0034759020805358886	0.0037185189723968506	0		0.4468854064941406	-2.3820673828125	0		-1.1439971923828125	-0.03109878921508789	0		-0.6998095092773438	-2.43080908203125	0		1.279227783203125	-0.6712874755859375	0		2.98015380859375	-0.20540695190429686	0		4.56933935546875	0.040846389770507814	0		5.6038623046875	0.2201342010498047	0		-0.4628238525390625	5.8478837890625	0		
-0.0038561360836029054	0.0038559749126434325	0		0.45913766479492185	-2.38615283203125	0		-1.2163134765625	-0.024905527114868164	0		-0.732421875	-2.423177490234375	0		1.2787581787109374	-0.6713200073242187	0		2.97789697265625	-0.19364071655273438	0		4.55714111328125	0.054527557373046875	0		5.60650048828125	0.2328577880859375	0		-0.4624295654296875	5.84808203125	0		
0.005668187141418457	-0.005121919155120849	0		0.4735489501953125	-2.382248779296875	0		-1.1447467041015624	-0.030529476165771483	0		-0.699130615234375	-2.428375732421875	0		1.2783189697265624	-0.6713207397460937	0		2.982424072265625	-0.20090164184570314	0		4.56370947265625	0.048057762145996094	0		5.60330517578125	0.21825274658203125	0		-0.46211151123046873	5.84828369140625	0		
-0.0045563230514526366	0.0041606659889221196	0		0.44497064208984377	-2.38178271484375	0		-1.2210706787109376	-0.02828604507446289	0		-0.7146506958007812	-2.42295751953125	0		1.31584423828125	-0.6767793579101562	0		2.982063720703125	-0.20104693603515625	0		4.56337451171875	0.047752704620361325	0		5.60305126953125	0.2175581817626953	0		-0.32860287475585936	5.86778369140625	0		
-0.00791114616394043	0.0013615039587020874	0		0.4782762145996094	-2.395096435546875	0		-1.233247314453125	-0.016864543914794923	0		-0.7063208618164063	-2.4338486328125	0		1.2744976806640624	-0.6742047119140625	0		2.972755859375	-0.19902938842773438	0		4.57306103515625	0.047388072967529296	0		5.602814453125	0.21700628662109375	0		-0.46166796875	5.84868798828125	0		
0.004718836784362793	-0.004641440868377686	0		0.4269013977050781	-2.38730810546875	0		-1.2176319580078125	-0.02381498146057129	0		-0.693872314453125	-2.439799560546875	0		1.2771947021484376	-0.6711744384765626	0		2.97244970703125	-0.1990865173339844	0		4.5658515625	0.053301883697509767	0		5.609703125	0.21116593933105468	0		-0.3272759094238281	5.86714990234375	0		
0.008494283676147461	-0.0015298269987106324	0		0.4845081176757812	-2.38592578125	0		-1.2098060302734375	-0.016678228378295898	0		-0.7710232543945312	-2.418591064453125	0		1.2879012451171874	-0.6702344360351562	0		2.988263916015625	-0.19231961059570313	0		4.5704873046875	0.04511212921142578	0		5.60824853515625	0.24202597045898439	0		-0.4594678649902344	5.84505419921875	0		
0.00826198673248291	-0.0013685590028762818	0		0.45614938354492185	-2.38542431640625	0		-1.2240640869140624	-0.018268032073974608	0		-0.7035225830078125	-2.429275390625	0		1.27662060546875	-0.67099853515625	0		2.970088134765625	-0.1870845947265625	0		4.5694404296875	0.05903876495361328	0		5.6093359375	0.2106067352294922	0		-0.46134487915039063	5.84826708984375	0		
0.004022272109985352	-0.004158837795257568	0		0.4688637390136719	-2.38345849609375	0		-1.230199462890625	-0.012975906372070313	0		-0.7438450317382812	-2.42956103515625	0		1.2733499755859374	-0.6738604125976563	0		2.971721435546875	-0.19908944702148437	0		4.5620859375	0.047078113555908206	0		5.6050107421875	0.229602294921875	0		-0.46127566528320313	5.8484453125	0		
-0.0060284919738769534	0.005123443126678466	0		0.44262860107421875	-2.380983642578125	0		-1.1494556884765625	-0.01984054374694824	0		-0.71017919921875	-2.43482666015625	0		1.314123779296875	-0.6762979125976563	0		2.9805166015625	-0.2011729736328125	0		4.56191796875	0.04705016326904297	0		5.60488623046875	0.2294886474609375	0		-0.3410809020996094	5.8580361328125	0		
0.0037117030620574952	-0.0038625459671020506	0		0.45230206298828124	-2.388984619140625	0		-1.2186435546875	-0.022747024536132813	0		-0.7694093017578125	-2.434880126953125	0		1.2729906005859375	-0.6736566162109375	0		2.9773037109375	-0.2060879364013672	0		4.55485888671875	0.053134014129638675	0		5.60475390625	0.2242298583984375	0		-0.46017300415039064	5.8477626953125	0		
0.0035990030765533448	-0.0037256100177764893	0		0.4531479187011719	-2.386873779296875	0		-1.2106650390625	-0.015681670188903808	0		-0.7085567626953125	-2.43252734375	0		1.275898193359375	-0.670595703125	0		2.975343994140625	-0.1940101318359375	0		4.5647470703125	0.05300946426391601	0		5.6118017578125	0.22396690368652344	0		-0.460119384765625	5.84791259765625	0		
-0.0063675098419189455	0.005534327030181885	0		0.47008236694335936	-2.38098193359375	0		-1.21668505859375	-0.010445308685302735	0		-0.744658447265625	-2.42890576171875	0		1.2757957763671874	-0.6704977416992187	0		2.980159912109375	-0.20101838684082032	0		4.56466162109375	0.053028785705566406	0		5.607552734375	0.24139630126953124	0		-0.4600660400390625	5.84805224609375	0		
0.0034502830505371094	-0.003478048086166382	0		0.4939053344726563	-2.386189453125	0		-1.1557926025390626	-0.014110686302185059	0		-0.7148900146484375	-2.4381689453125	0		1.2726810302734375	-0.6733633422851563	0		2.989172607421875	-0.1950771484375	0		4.561521484375	0.04709920883178711	0		5.604587890625	0.22939881896972655	0		-0.325747314453125	5.86740234375	0		
-0.009508377075195312	0.002803443908691406	0		0.43987432861328124	-2.38237109375	0		-1.224879150390625	-0.017067480087280273	0		-0.7149663696289063	-2.438048583984375	0		1.2726314697265626	-0.6732731323242187	0		2.971078857421875	-0.19877371215820314	0		4.56148291015625	0.04713955688476563	0		5.611662109375	0.2240242919921875	0		-0.3408158264160156	5.85871630859375	0		
-0.009525818824768066	0.0029025499820709228	0		0.47770751953125	-2.39178076171875	0		-1.2108714599609376	-0.01514102554321289	0		-0.7041314086914062	-2.4470869140625	0		1.2785262451171875	-0.6792673950195313	0		2.966152587890625	-0.19164189147949218	0		4.5614658203125	0.04718791961669922	0		5.61582275390625	0.2049231719970703	0		-0.45991717529296877	5.84840087890625	0		
0.015423584938049316	-0.0013419040441513062	0		0.4547891540527344	-2.38439208984375	0		-1.2027745361328126	-0.008151368141174316	0		-0.7340230102539063	-2.43759619140625	0		1.2805655517578125	-0.6762166137695312	0		2.987154052734375	-0.19185615539550782	0		4.5617099609375	0.0652390365600586	0		5.614541015625	0.2309952392578125	0		-0.4579079895019531	5.8454658203125	0		
